# xmcd CD database file
#
# Track frame offsets:
#	150
#	40435
#	95450
#	133760
#	174665
#	215167
#
# Disc length: 3415 seconds
#
# Revision: 0
# Processed by: cddbd v1.4PL0 Copyright (c) Steve Scherf et al.
# Submitted via: CDex 1.50beta9
#
DISCID=590d5506
DTITLE=Kang Qiao - The Way Of Life
DYEAR=1998
DGENRE=New Age
TTITLE0=Chuang Chou Dreaming A Batterfly
TTITLE1=Free And Easy Wandering
TTITLE2=Forgetting
TTITLE3=The Fisherman
TTITLE4=Fasting Of The Mind
TTITLE5=Thou Art Not Fish
EXTD=YEAR: 1998
EXTT0=
EXTT1=
EXTT2=
EXTT3=
EXTT4=
EXTT5=
PLAYORDER=
